<svg width="30" height="32" viewBox="0 0 30 32" fill="none" xmlns="http://www.w3.org/2000/svg">
<path d="M7 0V10.6667M23 0V10.6667M3 5.33333H27C27.5304 5.33333 28.0391 5.55809 28.4142 5.95817C28.7893 6.35825 29 6.90087 29 7.46667V28.8C29 29.3658 28.7893 29.9084 28.4142 30.3085C28.0391 30.7086 27.5304 30.9333 27 30.9333H3C2.46957 30.9333 1.96086 30.7086 1.58579 30.3085C1.21071 29.9084 1 29.3658 1 28.8V7.46667C1 6.90087 1.21071 6.35825 1.58579 5.95817C1.96086 5.55809 2.46957 5.33333 3 5.33333Z" stroke="#51AAFD" stroke-width="2"/>
<line x1="1" y1="14" x2="28.7321" y2="14" stroke="#51AAFD" stroke-width="2" stroke-linecap="round"/>
</svg>
