<svg width="36" height="36" viewBox="0 0 36 36" fill="none" xmlns="http://www.w3.org/2000/svg">
<path d="M24.711 8.11174L27.888 11.2872L24.711 8.11174ZM26.754 5.31424L18.1635 13.9047C17.7196 14.348 17.4169 14.9127 17.2935 15.5277L16.5 19.4997L20.472 18.7047C21.087 18.5817 21.651 18.2802 22.095 17.8362L30.6855 9.24574C30.9436 8.98759 31.1484 8.68113 31.2881 8.34385C31.4278 8.00656 31.4997 7.64506 31.4997 7.27999C31.4997 6.91492 31.4278 6.55342 31.2881 6.21613C31.1484 5.87885 30.9436 5.57239 30.6855 5.31424C30.4274 5.05609 30.1209 4.85132 29.7836 4.71161C29.4463 4.57191 29.0848 4.5 28.7198 4.5C28.3547 4.5 27.9932 4.57191 27.6559 4.71161C27.3186 4.85132 27.0121 5.05609 26.754 5.31424V5.31424Z" stroke="#51AAFD" stroke-width="1.5" stroke-linecap="round" stroke-linejoin="round"/>
<path d="M28.5 22.5V27C28.5 27.7956 28.1839 28.5587 27.6213 29.1213C27.0587 29.6839 26.2956 30 25.5 30H9C8.20435 30 7.44129 29.6839 6.87868 29.1213C6.31607 28.5587 6 27.7956 6 27V10.5C6 9.70435 6.31607 8.94129 6.87868 8.37868C7.44129 7.81607 8.20435 7.5 9 7.5H13.5" stroke="#51AAFD" stroke-width="1.5" stroke-linecap="round" stroke-linejoin="round"/>
</svg>
