<svg width="32" height="32" viewBox="0 0 32 32" fill="none" xmlns="http://www.w3.org/2000/svg">
<path d="M8 0V10.6667M24 0V10.6667M11 18.1333L15 22.4L22 13.8667M4 5.33333H28C28.5304 5.33333 29.0391 5.55809 29.4142 5.95817C29.7893 6.35825 30 6.90087 30 7.46667V28.8C30 29.3658 29.7893 29.9084 29.4142 30.3085C29.0391 30.7086 28.5304 30.9333 28 30.9333H4C3.46957 30.9333 2.96086 30.7086 2.58579 30.3085C2.21071 29.9084 2 29.3658 2 28.8V7.46667C2 6.90087 2.21071 6.35825 2.58579 5.95817C2.96086 5.55809 3.46957 5.33333 4 5.33333Z" stroke="#51AAFD" stroke-width="1.5"/>
</svg>
