<svg width="24" height="24" viewBox="0 0 24 24" fill="none" xmlns="http://www.w3.org/2000/svg">
<path fill-rule="evenodd" clip-rule="evenodd" d="M20.8054 7.62337L20.183 6.54328C19.6564 5.62936 18.4895 5.31408 17.5743 5.83847C17.1387 6.0951 16.6189 6.16791 16.1295 6.04084C15.6401 5.91378 15.2214 5.59727 14.9656 5.16113C14.8011 4.8839 14.7127 4.56815 14.7093 4.2458C14.7242 3.72898 14.5292 3.22816 14.1688 2.85743C13.8084 2.48669 13.3133 2.27762 12.7963 2.27783H11.5423C11.0357 2.27783 10.5501 2.47967 10.1928 2.8387C9.83547 3.19773 9.63595 3.68435 9.63839 4.19088C9.62338 5.23668 8.77126 6.07657 7.72535 6.07646C7.40299 6.07311 7.08724 5.9847 6.81001 5.82017C5.89484 5.29577 4.72789 5.61105 4.20132 6.52497L3.53313 7.62337C3.00719 8.53615 3.31818 9.70236 4.22878 10.2321C4.82068 10.5738 5.18531 11.2053 5.18531 11.8888C5.18531 12.5723 4.82068 13.2038 4.22878 13.5456C3.31934 14.0717 3.00801 15.2351 3.53313 16.1451L4.1647 17.2344C4.41143 17.6795 4.82538 18.008 5.31497 18.1472C5.80456 18.2863 6.32942 18.2247 6.7734 17.9758C7.20986 17.7211 7.72997 17.6513 8.21812 17.782C8.70627 17.9126 9.12201 18.2328 9.37294 18.6714C9.53748 18.9486 9.62589 19.2644 9.62924 19.5868C9.62924 20.6433 10.4857 21.4998 11.5423 21.4998H12.7963C13.8493 21.4998 14.7043 20.6489 14.7093 19.5959C14.7069 19.0878 14.9076 18.5998 15.2669 18.2405C15.6262 17.8812 16.1143 17.6804 16.6224 17.6829C16.944 17.6915 17.2584 17.7795 17.5377 17.9392C18.4505 18.4651 19.6167 18.1541 20.1464 17.2435L20.8054 16.1451C21.0605 15.7073 21.1305 15.1858 21 14.6961C20.8694 14.2065 20.549 13.7891 20.1098 13.5364C19.6705 13.2837 19.3502 12.8663 19.2196 12.3767C19.089 11.8871 19.159 11.3656 19.4141 10.9277C19.58 10.6381 19.8202 10.398 20.1098 10.2321C21.0149 9.70265 21.3252 8.54325 20.8054 7.63252V7.62337Z" fill="white" stroke="white" stroke-width="1.5" stroke-linecap="round" stroke-linejoin="round"/>
<circle cx="12.1752" cy="11.8886" r="2.63616" fill="#51AAFD" stroke="#51AAFD" stroke-width="1.5" stroke-linecap="round" stroke-linejoin="round"/>
</svg>
