<svg width="32" height="32" viewBox="0 0 32 32" fill="none" xmlns="http://www.w3.org/2000/svg">
<path fill-rule="evenodd" clip-rule="evenodd" d="M16.0495 2.66666H15.9544C11.4622 2.66666 7.34336 5.92607 6.94377 10.2413C6.91712 10.55 6.89895 10.8654 6.88722 11.2052L6.8708 11.9996L6.86755 12.7119L6.88761 12.6307C6.70222 13.5347 6.27496 14.3732 5.65001 15.0584L5.56045 15.1736C5.02535 15.9865 4.71789 16.9274 4.6703 17.8989L4.66917 18.2166C4.64186 19.4944 5.07973 20.7588 5.90347 21.7631C7.02055 22.9426 8.46658 23.6461 10.0186 23.7954C13.988 24.2265 18.004 24.2265 21.9844 23.7943C23.5258 23.6524 24.9761 22.9468 26.0464 21.8109C26.8545 20.8441 27.2955 19.6839 27.3333 18.4827L27.3346 17.945C27.2904 16.9307 26.981 15.9889 26.4395 15.1796L26.3572 15.0739L26.1563 14.8376C25.7047 14.2737 25.375 13.624 25.1874 12.9292L25.128 12.6797L25.1157 12.418C25.112 12.3003 25.1102 12.1699 25.1096 12.0069L25.1094 11.1094C25.1064 10.7661 25.0962 10.522 25.0725 10.2471C24.6592 5.92379 20.5392 2.66666 16.0495 2.66666ZM15.9544 4.52712H16.0495C19.6461 4.52712 22.9272 7.12099 23.2423 10.4177C23.2609 10.6341 23.2692 10.8406 23.2717 11.1473L23.2753 12.3535C23.2793 12.5464 23.2869 12.7068 23.2999 12.8873L23.317 13.0109L23.4036 13.3786C23.6599 14.3513 24.1204 15.2588 24.7543 16.0411L24.9381 16.2567L24.9178 16.2229C25.2693 16.7483 25.4696 17.3581 25.4976 17.9868L25.4967 18.2048C25.5179 19.0795 25.2279 19.9107 24.6791 20.5689C23.954 21.3359 22.9174 21.8403 21.8031 21.943C17.9382 22.3625 14.0537 22.3625 10.2035 21.9444C9.07707 21.836 8.03972 21.3313 7.27289 20.5241C6.77579 19.9142 6.48888 19.0857 6.50689 18.2365L6.50711 17.945L6.5304 17.691C6.5865 17.266 6.72848 16.8353 6.94856 16.4388L7.06017 16.2541C7.87836 15.3338 8.43987 14.2148 8.68718 13.0089L8.70636 12.8198L8.71506 11.5941L8.73647 10.9723C8.74618 10.7761 8.75861 10.5897 8.7742 10.409C9.07868 7.12114 12.3567 4.52712 15.9544 4.52712ZM7.06017 16.2541C7.04039 16.2763 7.02045 16.2985 7.00036 16.3205L7.06605 16.2443L7.06017 16.2541ZM19.4786 26.2541C19.0831 25.9321 18.5047 25.9955 18.1865 26.3958C18.0486 26.5693 17.889 26.725 17.7114 26.859C17.109 27.3315 16.3572 27.5419 15.6098 27.4528C14.8636 27.364 14.1852 26.9841 13.7249 26.3993C13.4087 25.9975 12.8305 25.9312 12.4335 26.2514C12.0366 26.5715 11.9712 27.1568 12.2874 27.5586C13.0506 28.5283 14.169 29.1545 15.395 29.3006C16.62 29.4465 17.8534 29.1013 18.8236 28.34C19.1116 28.1229 19.3834 27.858 19.6186 27.562C19.9367 27.1617 19.874 26.5762 19.4786 26.2541Z" fill="#93928E"/>
<circle cx="23" cy="4" r="4" fill="#FF0000"/>
</svg>
