<svg width="24" height="25" viewBox="0 0 24 25" fill="none" xmlns="http://www.w3.org/2000/svg">
<path fill-rule="evenodd" clip-rule="evenodd" d="M18.7071 9.5871C18.7071 10.843 19.039 11.5833 19.7695 12.4364C20.3231 13.0648 20.5 13.8716 20.5 14.7468C20.5 15.621 20.2128 16.4509 19.6373 17.1247C18.884 17.9324 17.8215 18.4481 16.7372 18.5378C15.1659 18.6717 13.5937 18.7845 12.0005 18.7845C10.4063 18.7845 8.83505 18.717 7.26375 18.5378C6.17846 18.4481 5.11602 17.9324 4.36367 17.1247C3.78822 16.4509 3.5 15.621 3.5 14.7468C3.5 13.8716 3.6779 13.0648 4.23049 12.4364C4.98384 11.5833 5.29392 10.843 5.29392 9.5871V9.16107C5.29392 7.47911 5.71333 6.37929 6.577 5.30263C7.86106 3.73247 9.91935 2.79077 11.9558 2.79077H12.0452C14.1254 2.79077 16.2502 3.77779 17.5125 5.41544C18.3314 6.46993 18.7071 7.52343 18.7071 9.16107V9.5871ZM9.07367 20.8516C9.07367 20.348 9.53582 20.1174 9.96318 20.0187C10.4631 19.9129 13.5093 19.9129 14.0092 20.0187C14.4366 20.1174 14.8987 20.348 14.8987 20.8516C14.8738 21.331 14.5926 21.756 14.204 22.026C13.7001 22.4188 13.1088 22.6675 12.4906 22.7572C12.1487 22.8015 11.8128 22.8025 11.4828 22.7572C10.8636 22.6675 10.2723 22.4188 9.76938 22.025C9.37978 21.756 9.09852 21.331 9.07367 20.8516Z" fill="#51AAFD"/>
</svg>
