<svg width="24" height="24" viewBox="0 0 24 24" fill="none" xmlns="http://www.w3.org/2000/svg">
<path fill-rule="evenodd" clip-rule="evenodd" d="M11.6653 18.6314L5.73395 21.8808C5.26037 22.1269 4.67694 21.9527 4.41587 21.4872C4.34034 21.343 4.29959 21.1832 4.29688 21.0204V6.62223C4.29688 3.87623 6.17331 2.77783 8.87353 2.77783H15.2168C17.8346 2.77783 19.7934 3.803 19.7934 6.43916V21.0204C19.7934 21.2801 19.6903 21.5293 19.5066 21.7129C19.3229 21.8966 19.0738 21.9998 18.814 21.9998C18.6484 21.9972 18.4855 21.9565 18.3381 21.8808L12.3701 18.6314C12.1502 18.5126 11.8852 18.5126 11.6653 18.6314Z" fill="#51AAFD" stroke="#51AAFD" stroke-width="1.5" stroke-linecap="round" stroke-linejoin="round"/>
<path d="M8.37109 9.32241H15.6663" stroke="white" stroke-width="1.5" stroke-linecap="round" stroke-linejoin="round"/>
</svg>
