<svg width="25" height="25" viewBox="0 0 25 25" fill="none" xmlns="http://www.w3.org/2000/svg">
<circle cx="12.5" cy="12.5" r="12" fill="white" stroke="#EBEBEB"/>
<path d="M12.4609 0.78125C7.38281 0.78125 3.04688 4.0625 1.44531 8.59375H23.5547C21.9141 4.0625 17.5781 0.78125 12.4609 0.78125Z" fill="#FDFDFD"/>
<path d="M12.4609 24.2188C17.5781 24.2188 21.9141 20.9375 23.5156 16.4062H1.44531C3.04688 20.9766 7.38281 24.2188 12.4609 24.2188Z" fill="#ED4C5C"/>
<path d="M1.44531 8.59375C1.01563 9.80469 0.78125 11.1328 0.78125 12.5C0.78125 13.8672 1.01563 15.1953 1.44531 16.4062H23.5547C23.9844 15.1953 24.2188 13.8672 24.2188 12.5C24.2188 11.1328 23.9844 9.80469 23.5547 8.59375H1.44531Z" fill="#428BC1"/>
</svg>
