<svg width="30" height="30" viewBox="0 0 30 30" fill="none" xmlns="http://www.w3.org/2000/svg">
<path d="M22.84 23.8C22.84 25.5673 21.4073 27 19.64 27C17.8727 27 16.44 25.5673 16.44 23.8C16.44 22.0327 17.8727 20.6 19.64 20.6C21.4073 20.6 22.84 22.0327 22.84 23.8Z" fill="white"/>
<path d="M11.64 15C11.64 16.7673 10.2073 18.2 8.44 18.2C6.67269 18.2 5.24 16.7673 5.24 15C5.24 13.2327 6.67269 11.8 8.44 11.8C10.2073 11.8 11.64 13.2327 11.64 15Z" fill="white"/>
<path d="M22.84 6.2C22.84 7.96731 21.4073 9.4 19.64 9.4C17.8727 9.4 16.44 7.96731 16.44 6.2C16.44 4.43269 17.8727 3 19.64 3C21.4073 3 22.84 4.43269 22.84 6.2Z" fill="white"/>
<path d="M23.64 23.7158H27M5.24 15L3 15.0587M5.24 15C5.24 16.7673 6.67269 18.2 8.44 18.2C10.2073 18.2 11.64 16.7673 11.64 15C11.64 13.2327 10.2073 11.8 8.44 11.8C6.67269 11.8 5.24 13.2327 5.24 15ZM12.5586 15.0588H27M16.0679 6.40165L3 6.40165M27 6.40165H23.64M3 23.7158H16.0679M22.84 23.8C22.84 25.5673 21.4073 27 19.64 27C17.8727 27 16.44 25.5673 16.44 23.8C16.44 22.0327 17.8727 20.6 19.64 20.6C21.4073 20.6 22.84 22.0327 22.84 23.8ZM22.84 6.2C22.84 7.96731 21.4073 9.4 19.64 9.4C17.8727 9.4 16.44 7.96731 16.44 6.2C16.44 4.43269 17.8727 3 19.64 3C21.4073 3 22.84 4.43269 22.84 6.2Z" stroke="#51AAFD" stroke-width="1.5" stroke-linecap="round"/>
</svg>
