<svg width="24" height="24" viewBox="0 0 24 24" fill="none" xmlns="http://www.w3.org/2000/svg">
<path d="M18.0939 22.6663H5.90724C5.6507 22.6603 5.39787 22.6037 5.16319 22.4999C4.92851 22.3961 4.71659 22.2471 4.53952 22.0614C4.36246 21.8756 4.22373 21.6568 4.13125 21.4175C4.03877 21.1781 3.99437 20.9229 4.00057 20.6663V7.48633H5.3339V20.6663C5.32754 20.7478 5.33734 20.8297 5.36275 20.9074C5.38816 20.985 5.42866 21.0569 5.48195 21.1189C5.53523 21.1808 5.60023 21.2316 5.67322 21.2684C5.7462 21.3051 5.82574 21.3271 5.90724 21.333H18.0939C18.1754 21.3271 18.2549 21.3051 18.3279 21.2684C18.4009 21.2316 18.4659 21.1808 18.5192 21.1189C18.5725 21.0569 18.613 20.985 18.6384 20.9074C18.6638 20.8297 18.6736 20.7478 18.6672 20.6663V7.48633H20.0006V20.6663C20.0068 20.9229 19.9624 21.1781 19.8699 21.4175C19.7774 21.6568 19.6387 21.8756 19.4616 22.0614C19.2846 22.2471 19.0726 22.3961 18.8379 22.4999C18.6033 22.6037 18.3504 22.6603 18.0939 22.6663Z" fill="#FF0000" fill-opacity="0.3"/>
<path d="M20.5213 6.00033H3.33464C3.15782 6.00033 2.98826 5.93009 2.86323 5.80506C2.73821 5.68004 2.66797 5.51047 2.66797 5.33366C2.66797 5.15685 2.73821 4.98728 2.86323 4.86225C2.98826 4.73723 3.15782 4.66699 3.33464 4.66699H20.5213C20.6981 4.66699 20.8677 4.73723 20.9927 4.86225C21.1177 4.98728 21.188 5.15685 21.188 5.33366C21.188 5.51047 21.1177 5.68004 20.9927 5.80506C20.8677 5.93009 20.6981 6.00033 20.5213 6.00033Z" fill="#FF0000" fill-opacity="0.3"/>
<path d="M14 8.66699H15.3333V18.667H14V8.66699Z" fill="#FF0000" fill-opacity="0.3"/>
<path d="M8.66797 8.66699H10.0013V18.667H8.66797V8.66699Z" fill="#FF0000" fill-opacity="0.3"/>
<path d="M15.3346 3.90634H14.068V2.66634H9.93464V3.90634H8.66797V2.66634C8.66754 2.32397 8.79883 1.99456 9.03464 1.74634C9.27044 1.49812 9.5927 1.35013 9.93464 1.33301H14.068C14.4099 1.35013 14.7322 1.49812 14.968 1.74634C15.2038 1.99456 15.3351 2.32397 15.3346 2.66634V3.90634Z" fill="#FF0000" fill-opacity="0.3"/>
</svg>
