<svg width="32" height="32" viewBox="0 0 32 32" fill="none" xmlns="http://www.w3.org/2000/svg">
<ellipse cx="15.4371" cy="9.70405" rx="6.37071" ry="6.37071" stroke="#51AAFD" stroke-width="1.5" stroke-linecap="round" stroke-linejoin="round"/>
<path fill-rule="evenodd" clip-rule="evenodd" d="M5.33205 24.9352C5.33034 24.4873 5.4305 24.0449 5.62496 23.6415C6.23518 22.4211 7.956 21.7742 9.38392 21.4813C10.4137 21.2615 11.4578 21.1147 12.5083 21.042C14.4531 20.8711 16.4093 20.8711 18.3542 21.042C19.4046 21.1156 20.4485 21.2624 21.4785 21.4813C22.9064 21.7742 24.6272 22.36 25.2375 23.6415C25.6285 24.4639 25.6285 25.4186 25.2375 26.241C24.6272 27.5225 22.9064 28.1083 21.4785 28.389C20.4499 28.6179 19.4055 28.7688 18.3542 28.8406C16.7712 28.9748 15.1808 28.9992 13.5944 28.9138C13.2283 28.9138 12.8744 28.9138 12.5083 28.8406C11.4609 28.7697 10.4205 28.6187 9.39613 28.389C7.956 28.1083 6.24738 27.5225 5.62496 26.241C5.4315 25.8329 5.33143 25.3868 5.33205 24.9352Z" stroke="#51AAFD" stroke-width="1.5" stroke-linecap="round" stroke-linejoin="round"/>
</svg>
