<svg width="25" height="25" viewBox="0 0 25 25" fill="none" xmlns="http://www.w3.org/2000/svg">
<path d="M12.5 0.78125C7.53906 0.78125 3.32031 3.86719 1.60156 8.20312H23.3984C21.6797 3.86719 17.4609 0.78125 12.5 0.78125Z" fill="#42ADE2"/>
<path d="M12.5 24.2188C17.4609 24.2188 21.6797 21.1328 23.3984 16.7969H1.60156C3.32031 21.1328 7.53906 24.2188 12.5 24.2188Z" fill="#83BF4F"/>
<path d="M24.2188 12.5C24.2188 11.2891 24.0234 10.0781 23.6719 8.98438H1.32813C0.976563 10.0781 0.78125 11.2891 0.78125 12.5C0.78125 13.7109 0.976563 14.9219 1.32813 16.0156H23.6719C24.0234 14.9219 24.2188 13.7109 24.2188 12.5Z" fill="white"/>
<path d="M23.3984 8.20312C23.4375 8.32031 23.5156 8.47656 23.5547 8.59375C23.5937 8.71094 23.6328 8.86719 23.6719 8.98438" fill="#C94747"/>
<path d="M23.5547 8.59375C23.5156 8.47656 23.4375 8.32031 23.3984 8.20312H1.60156C1.5625 8.32031 1.48437 8.47656 1.44531 8.59375C1.40625 8.71094 1.36719 8.86719 1.32812 8.98438H23.6719C23.6328 8.86719 23.5937 8.71094 23.5547 8.59375V8.59375ZM1.44531 16.4062C1.48437 16.5234 1.5625 16.6797 1.60156 16.7969H23.3984C23.4375 16.6797 23.5156 16.5234 23.5547 16.4062C23.5937 16.2891 23.6328 16.1328 23.6719 16.0156H1.32812C1.36719 16.1328 1.40625 16.2891 1.44531 16.4062" fill="#C94747"/>
<path d="M7.96875 6.75781C7.03125 6.75781 6.28906 6.01563 6.28906 5.07812C6.28906 4.14062 7.03125 3.39844 7.96875 3.39844C8.20312 3.39844 8.39844 3.4375 8.59375 3.51562C8.28125 3.28125 7.85156 3.125 7.42188 3.125C6.32813 3.125 5.46875 3.98438 5.46875 5.07812C5.46875 6.17187 6.32813 7.03125 7.42188 7.03125C7.85156 7.03125 8.28125 6.875 8.59375 6.64062C8.39844 6.71875 8.20312 6.75781 7.96875 6.75781ZM9.64844 5.9375L9.80469 6.36719H10.2344L9.88281 6.60156L10 7.03125L9.64844 6.75781L9.29687 7.03125L9.45313 6.60156L9.10156 6.36719H9.53125L9.64844 5.9375ZM11.3281 5.9375L11.4453 6.36719H11.9141L11.5625 6.60156L11.6797 7.03125L11.3281 6.75781L10.9766 7.03125L11.0937 6.60156L10.7422 6.36719H11.1719L11.3281 5.9375ZM13.0078 5.9375L13.125 6.36719H13.5547L13.2031 6.60156L13.3594 7.03125L13.0078 6.75781L12.6172 7.03125L12.7734 6.60156L12.4219 6.36719H12.8516L13.0078 5.9375ZM14.6484 5.9375L14.8047 6.36719H15.2344L14.8828 6.60156L15 7.03125L14.6484 6.75781L14.2969 7.03125L14.4141 6.60156L14.0625 6.36719H14.5313L14.6484 5.9375ZM16.3281 5.9375L16.4453 6.36719H16.9141L16.5234 6.60156L16.6797 7.03125L16.3281 6.75781L15.9766 7.03125L16.0938 6.60156L15.7422 6.36719H16.1719L16.3281 5.9375ZM11.3281 4.53125L11.4453 4.96094H11.9141L11.5625 5.19531L11.6797 5.625L11.3281 5.35156L10.9766 5.625L11.0937 5.19531L10.7422 4.96094H11.1719L11.3281 4.53125ZM13.0078 4.53125L13.125 4.96094H13.5547L13.2031 5.19531L13.3594 5.625L13.0078 5.35156L12.6172 5.625L12.7734 5.19531L12.4219 4.96094H12.8516L13.0078 4.53125ZM14.6484 4.53125L14.8047 4.96094H15.2344L14.8828 5.19531L15 5.625L14.6484 5.35156L14.2969 5.625L14.4141 5.19531L14.0625 4.96094H14.5313L14.6484 4.53125ZM16.3281 4.53125L16.4453 4.96094H16.9141L16.5234 5.19531L16.6797 5.625L16.3281 5.35156L15.9766 5.625L16.0938 5.19531L15.7422 4.96094H16.1719L16.3281 4.53125ZM13.0078 3.125L13.125 3.55469H13.5547L13.2031 3.78906L13.3594 4.21875L13.0078 3.94531L12.6172 4.21875L12.7734 3.78906L12.4219 3.55469H12.8516L13.0078 3.125ZM14.6484 3.125L14.8047 3.55469H15.2344L14.8828 3.78906L15 4.21875L14.6484 3.94531L14.2969 4.21875L14.4141 3.78906L14.0625 3.55469H14.5313L14.6484 3.125ZM16.3281 3.125L16.4453 3.55469H16.9141L16.5234 3.78906L16.6797 4.21875L16.3281 3.94531L15.9766 4.21875L16.0938 3.78906L15.7422 3.55469H16.1719L16.3281 3.125Z" fill="white"/>
</svg>
