<svg width="32" height="32" viewBox="0 0 32 32" fill="none" xmlns="http://www.w3.org/2000/svg">
<path fill-rule="evenodd" clip-rule="evenodd" d="M21.0802 17.6264C21.2442 17.1138 21.3327 16.5674 21.3327 16.0003C21.3327 13.0548 18.9449 10.667 15.9993 10.667C15.4323 10.667 14.8859 10.7555 14.3732 10.9194L15.6376 12.1838C15.7567 12.1727 15.8774 12.167 15.9993 12.167C18.1164 12.167 19.8327 13.8832 19.8327 16.0003C19.8327 16.1223 19.827 16.243 19.8158 16.362L21.0802 17.6264ZM12.9235 13.7123C12.4476 14.3509 12.166 15.1427 12.166 16.0003C12.166 18.1174 13.8823 19.8337 15.9993 19.8337C16.8569 19.8337 17.6488 19.552 18.2874 19.0762L19.3561 20.145C18.4395 20.8883 17.2714 21.3337 15.9993 21.3337C13.0538 21.3337 10.666 18.9458 10.666 16.0003C10.666 14.7282 11.1114 13.5602 11.8547 12.6435L12.9235 13.7123Z" fill="#93928E"/>
<path fill-rule="evenodd" clip-rule="evenodd" d="M24.4714 21.0176C25.9312 19.7518 27.0756 18.4322 27.7854 17.5396C27.8082 17.5109 27.8314 17.482 27.8548 17.4528C28.1685 17.0619 28.5238 16.619 28.5238 16C28.5238 15.381 28.1685 14.9381 27.8548 14.5472C27.8314 14.518 27.8082 14.4891 27.7854 14.4604C26.8973 13.3434 25.3284 11.558 23.3128 10.0458C21.305 8.53942 18.7813 7.25 15.9992 7.25C14.4716 7.25 13.0218 7.63877 11.6926 8.23877L12.8374 9.38361C13.852 8.98695 14.9131 8.75 15.9992 8.75C18.3218 8.75 20.5306 9.83368 22.4126 11.2457C24.2869 12.6518 25.7653 14.3299 26.6113 15.3939C26.816 15.6514 26.9197 15.7846 26.9822 15.8918C27.0244 15.964 27.0241 15.9846 27.0238 15.9974L27.0238 16L27.0238 16.0026C27.0241 16.0154 27.0244 16.036 26.9822 16.1082C26.9197 16.2154 26.816 16.3486 26.6113 16.6061C25.9213 17.4738 24.8108 18.75 23.4079 19.954L24.4714 21.0176ZM22.0399 22.8287L20.9482 21.737C19.4228 22.6391 17.7431 23.25 15.9992 23.25C13.6766 23.25 11.4678 22.1663 9.58576 20.7544C7.71147 19.3482 6.23314 17.6701 5.38712 16.6061C5.18242 16.3486 5.07871 16.2154 5.01615 16.1082C4.97396 16.036 4.97434 16.0154 4.97458 16.0026L4.97461 16L4.97458 15.9974C4.97434 15.9846 4.97396 15.964 5.01615 15.8918C5.07871 15.7846 5.18243 15.6514 5.38712 15.3939C6.23314 14.3299 7.71147 12.6518 9.58576 11.2456C9.75179 11.1211 9.92037 10.9991 10.0913 10.8801L9.01515 9.80395C8.90381 9.88382 8.79394 9.96449 8.68557 10.0458C6.67001 11.558 5.10115 13.3434 4.21304 14.4604C4.19027 14.489 4.16711 14.5179 4.14372 14.547L4.14359 14.5472C3.8299 14.9381 3.47461 15.381 3.47461 16C3.47461 16.619 3.8299 17.0619 4.14359 17.4528C4.16703 17.482 4.19023 17.5109 4.21304 17.5396C5.10115 18.6566 6.67001 20.442 8.68557 21.9542C10.6934 23.4606 13.2171 24.75 15.9992 24.75C18.2213 24.75 20.2786 23.9274 22.0399 22.8287Z" fill="#93928E"/>
<path d="M6.66602 2.66699L27.9993 24.0003" stroke="#93928E" stroke-width="1.5"/>
</svg>
